<svg width="358" height="358" viewBox="0 0 358 358" fill="none" xmlns="http://www.w3.org/2000/svg">
<path d="M294 19C318.853 19 339 39.1472 339 64V339H64C39.1472 339 19 318.853 19 294V19H294Z" fill="url(#paint0_linear_2005_16)" stroke="white" stroke-width="10"/>
<path d="M125.828 243.278C121.694 250.028 119.5 257.748 119.5 265.68C115.281 267.156 110.725 268 106 268C83.6406 268 65.5 249.859 65.5 227.5V106C58.0328 106 52 99.9672 52 92.5C52 85.0328 58.0328 79 65.5 79H146.5C153.967 79 160 85.0328 160 92.5C160 99.9672 153.967 106 146.5 106V209.739L125.828 243.32V243.278ZM92.5 106V146.5H119.5V106H92.5ZM268 79C275.467 79 281.5 85.0328 281.5 92.5C281.5 99.9672 275.467 106 268 106V169.661L317.655 250.366C320.481 254.964 322 260.28 322 265.722C322 281.88 308.88 295 292.722 295H162.278C146.12 295 133 281.88 133 265.722C133 260.322 134.519 255.006 137.345 250.366L187 169.661V106C179.533 106 173.5 99.9672 173.5 92.5C173.5 85.0328 179.533 79 187 79H268ZM214 106V173.5C214 175.989 213.325 178.436 212.017 180.588L191.43 214H263.57L242.983 180.588C241.675 178.478 241 176.031 241 173.5V106H214Z" fill="black" fill-opacity="0.25"/>
<path d="M117.828 235.278C113.694 242.028 111.5 249.748 111.5 257.68C107.281 259.156 102.725 260 98 260C75.6406 260 57.5 241.859 57.5 219.5V98C50.0328 98 44 91.9672 44 84.5C44 77.0328 50.0328 71 57.5 71H138.5C145.967 71 152 77.0328 152 84.5C152 91.9672 145.967 98 138.5 98V201.739L117.828 235.32V235.278ZM84.5 98V138.5H111.5V98H84.5ZM260 71C267.467 71 273.5 77.0328 273.5 84.5C273.5 91.9672 267.467 98 260 98V161.661L309.655 242.366C312.481 246.964 314 252.28 314 257.722C314 273.88 300.88 287 284.722 287H154.278C138.12 287 125 273.88 125 257.722C125 252.322 126.519 247.006 129.345 242.366L179 161.661V98C171.533 98 165.5 91.9672 165.5 84.5C165.5 77.0328 171.533 71 179 71H260ZM206 98V165.5C206 167.989 205.325 170.436 204.017 172.588L183.43 206H255.57L234.983 172.588C233.675 170.478 233 168.031 233 165.5V98H206Z" fill="white"/>
<defs>
<linearGradient id="paint0_linear_2005_16" x1="344" y1="179" x2="14" y2="179" gradientUnits="userSpaceOnUse">
<stop stop-color="#2C3683"/>
<stop offset="0.669065" stop-color="#546116"/>
</linearGradient>
</defs>
</svg>
