<svg width="358" height="358" viewBox="0 0 358 358" fill="none" xmlns="http://www.w3.org/2000/svg">
<rect x="19" y="19" width="320" height="320" rx="160" fill="#A50034" stroke="white" stroke-width="10"/>
<path d="M118 133.188C118 114.838 125.27 97.2397 138.21 84.2645C151.15 71.2894 168.7 64 187 64C205.3 64 222.85 71.2894 235.79 84.2645C248.73 97.2397 256 114.838 256 133.188C256 151.537 248.73 169.135 235.79 182.11C222.85 195.086 205.3 202.375 187 202.375C168.7 202.375 151.15 195.086 138.21 182.11C125.27 169.135 118 151.537 118 133.188ZM187 102.438C191.217 102.438 194.667 98.9781 194.667 94.75C194.667 90.5219 191.217 87.0625 187 87.0625C161.604 87.0625 141 107.723 141 133.188C141 137.416 144.45 140.875 148.667 140.875C152.883 140.875 156.333 137.416 156.333 133.188C156.333 116.227 170.085 102.438 187 102.438ZM171.667 294.625V216.357C176.65 217.27 181.777 217.75 187 217.75C192.223 217.75 197.35 217.27 202.333 216.357V294.625C202.333 303.129 195.481 310 187 310C178.519 310 171.667 303.129 171.667 294.625Z" fill="#7C0027"/>
<path d="M110 125.188C110 106.838 117.27 89.2397 130.21 76.2645C143.15 63.2894 160.7 56 179 56C197.3 56 214.85 63.2894 227.79 76.2645C240.73 89.2397 248 106.838 248 125.188C248 143.537 240.73 161.135 227.79 174.11C214.85 187.086 197.3 194.375 179 194.375C160.7 194.375 143.15 187.086 130.21 174.11C117.27 161.135 110 143.537 110 125.188ZM179 94.4375C183.217 94.4375 186.667 90.9781 186.667 86.75C186.667 82.5219 183.217 79.0625 179 79.0625C153.604 79.0625 133 99.7227 133 125.188C133 129.416 136.45 132.875 140.667 132.875C144.883 132.875 148.333 129.416 148.333 125.188C148.333 108.227 162.085 94.4375 179 94.4375ZM163.667 286.625V208.357C168.65 209.27 173.777 209.75 179 209.75C184.223 209.75 189.35 209.27 194.333 208.357V286.625C194.333 295.129 187.481 302 179 302C170.519 302 163.667 295.129 163.667 286.625Z" fill="white"/>
</svg>
