<svg width="358" height="358" viewBox="0 0 358 358" fill="none" xmlns="http://www.w3.org/2000/svg">
<rect x="19" y="19" width="320" height="320" rx="160" fill="url(#paint0_linear_2005_5)" stroke="white" stroke-width="10"/>
<path d="M158.405 76.3947C161.852 73.1725 167.2 73.2166 170.647 76.4389C182.846 87.8713 194.292 100.187 204.988 113.517C209.85 107.161 215.374 100.231 221.341 94.5807C224.832 91.3143 230.224 91.3143 233.716 94.6248C249.008 109.191 261.957 128.437 271.062 146.711C280.033 164.72 286 183.127 286 196.104C286 252.428 241.892 300.011 187 300.011C131.489 300.011 88 252.383 88 196.06C88 179.11 95.867 158.408 108.065 137.927C120.396 117.137 137.809 95.4635 158.405 76.3947ZM187.751 257.636C198.933 257.636 208.833 254.546 218.158 248.367C236.765 235.389 241.759 209.435 230.578 189.042C228.589 185.069 223.506 184.804 220.633 188.159L209.496 201.092C206.579 204.447 201.32 204.358 198.579 200.871C191.287 191.602 178.249 175.049 170.824 165.647C168.04 162.116 162.736 162.072 159.908 165.603C144.969 184.363 137.456 196.192 137.456 209.479C137.5 239.715 159.863 257.636 187.751 257.636Z" fill="black" fill-opacity="0.25"/>
<path d="M150.405 68.3838C153.852 65.1615 159.2 65.2056 162.647 68.4279C174.846 79.8603 186.292 92.1756 196.988 105.506C201.85 99.1498 207.374 92.2197 213.341 86.5697C216.832 83.3033 222.224 83.3033 225.716 86.6138C241.008 101.18 253.957 120.426 263.062 138.7C272.033 156.709 278 175.116 278 188.093C278 244.417 233.892 292 179 292C123.489 292 80 244.372 80 188.049C80 171.099 87.867 150.397 100.065 129.916C112.396 109.126 129.809 87.4525 150.405 68.3838ZM179.751 249.625C190.933 249.625 200.833 246.535 210.158 240.356C228.765 227.378 233.759 201.424 222.578 181.031C220.589 177.058 215.506 176.793 212.633 180.148L201.496 193.081C198.579 196.436 193.32 196.347 190.579 192.86C183.287 183.591 170.249 167.038 162.824 157.636C160.04 154.105 154.736 154.061 151.908 157.592C136.969 176.352 129.456 188.181 129.456 201.468C129.5 231.704 151.863 249.625 179.751 249.625Z" fill="white"/>
<defs>
<linearGradient id="paint0_linear_2005_5" x1="179" y1="14" x2="179" y2="344" gradientUnits="userSpaceOnUse">
<stop stop-color="#FFFF00"/>
<stop offset="0.5" stop-color="#FFA500"/>
<stop offset="1" stop-color="#FF0000"/>
</linearGradient>
</defs>
</svg>
