<svg width="358" height="358" viewBox="0 0 358 358" fill="none" xmlns="http://www.w3.org/2000/svg">
<g filter="url(#filter0_d_31_28)">
<rect x="14" y="14" width="330" height="330" rx="165" fill="url(#paint0_linear_31_28)"/>
<rect x="19" y="19" width="320" height="320" rx="160" stroke="white" stroke-width="10"/>
</g>
<g filter="url(#filter1_d_31_28)">
<path d="M150.405 68.3838C153.852 65.1615 159.2 65.2056 162.647 68.4279C174.846 79.8603 186.292 92.1756 196.988 105.506C201.85 99.1498 207.374 92.2197 213.341 86.5697C216.832 83.3033 222.224 83.3033 225.716 86.6138C241.008 101.18 253.957 120.426 263.062 138.7C272.033 156.709 278 175.116 278 188.093C278 244.417 233.892 292 179 292C123.489 292 80 244.372 80 188.049C80 171.099 87.867 150.397 100.065 129.916C112.396 109.126 129.809 87.4525 150.405 68.3838ZM179.751 249.625C190.933 249.625 200.833 246.535 210.158 240.356C228.765 227.378 233.759 201.424 222.578 181.031C220.589 177.058 215.506 176.793 212.633 180.148L201.496 193.081C198.579 196.436 193.32 196.347 190.579 192.86C183.287 183.591 170.249 167.038 162.824 157.636C160.04 154.105 154.736 154.061 151.908 157.592C136.969 176.352 129.456 188.181 129.456 201.468C129.5 231.704 151.863 249.625 179.751 249.625Z" fill="white"/>
</g>
<defs>
<filter id="filter0_d_31_28" x="10" y="14" width="338" height="338" filterUnits="userSpaceOnUse" color-interpolation-filters="sRGB">
<feFlood flood-opacity="0" result="BackgroundImageFix"/>
<feColorMatrix in="SourceAlpha" type="matrix" values="0 0 0 0 0 0 0 0 0 0 0 0 0 0 0 0 0 0 127 0" result="hardAlpha"/>
<feOffset dy="4"/>
<feGaussianBlur stdDeviation="2"/>
<feComposite in2="hardAlpha" operator="out"/>
<feColorMatrix type="matrix" values="0 0 0 0 0 0 0 0 0 0 0 0 0 0 0 0 0 0 0.25 0"/>
<feBlend mode="normal" in2="BackgroundImageFix" result="effect1_dropShadow_31_28"/>
<feBlend mode="normal" in="SourceGraphic" in2="effect1_dropShadow_31_28" result="shape"/>
</filter>
<filter id="filter1_d_31_28" x="80" y="65.989" width="206" height="234.011" filterUnits="userSpaceOnUse" color-interpolation-filters="sRGB">
<feFlood flood-opacity="0" result="BackgroundImageFix"/>
<feColorMatrix in="SourceAlpha" type="matrix" values="0 0 0 0 0 0 0 0 0 0 0 0 0 0 0 0 0 0 127 0" result="hardAlpha"/>
<feOffset dx="8" dy="8"/>
<feComposite in2="hardAlpha" operator="out"/>
<feColorMatrix type="matrix" values="0 0 0 0 0 0 0 0 0 0 0 0 0 0 0 0 0 0 0.25 0"/>
<feBlend mode="normal" in2="BackgroundImageFix" result="effect1_dropShadow_31_28"/>
<feBlend mode="normal" in="SourceGraphic" in2="effect1_dropShadow_31_28" result="shape"/>
</filter>
<linearGradient id="paint0_linear_31_28" x1="179" y1="14" x2="179" y2="344" gradientUnits="userSpaceOnUse">
<stop stop-color="#FFFF00"/>
<stop offset="0.5" stop-color="#FFA500"/>
<stop offset="1" stop-color="#FF0000"/>
</linearGradient>
</defs>
</svg>
