<svg width="358" height="358" viewBox="0 0 358 358" fill="none" xmlns="http://www.w3.org/2000/svg">
<g filter="url(#filter0_d_29_8)">
<path d="M28.6192 291.236C29.7685 289.513 30.854 287.79 31.8756 286.066C38.2607 275.472 44.3266 261.558 45.5397 245.921C26.3844 224.156 15.0828 197.541 15.0828 168.756C15.0828 95.4211 88.2561 36 178.541 36C268.827 36 342 95.4211 342 168.756C342 242.091 268.827 301.512 178.541 301.512C154.853 301.512 132.377 297.427 112.072 290.087C104.474 295.64 92.0871 303.235 77.4014 309.618C67.7599 313.83 56.7775 317.66 45.412 319.894C44.9012 320.021 44.3904 320.085 43.8796 320.213C41.0701 320.723 38.3246 321.17 35.4513 321.426C35.3236 321.426 35.132 321.489 35.0043 321.489C31.7479 321.809 28.4915 322 25.2351 322C21.0848 322 17.3814 319.511 15.7851 315.681C14.1889 311.852 15.0828 307.512 17.9561 304.576C20.574 301.895 22.9365 299.023 25.1712 295.959C26.2567 294.491 27.2783 293.023 28.2361 291.555L28.4277 291.236H28.6192Z" fill="#00626D"/>
<path d="M29.2014 298.919C30.1881 297.584 31.1273 296.245 32.0185 294.903C32.303 294.639 32.5588 294.341 32.7789 294.011C33.972 292.222 35.1015 290.429 36.1669 288.633C42.7971 277.627 49.2325 262.963 50.5247 246.307C50.6292 244.961 50.1849 243.631 49.2931 242.617C30.8362 221.646 20.0828 196.175 20.0828 168.756C20.0828 99.1045 89.995 41 178.541 41C267.088 41 337 99.1045 337 168.756C337 238.408 267.088 296.512 178.541 296.512C155.427 296.512 133.527 292.526 113.772 285.385C112.208 284.82 110.465 285.069 109.122 286.051C101.809 291.395 89.7414 298.803 75.4084 305.032L75.3996 305.036C65.9984 309.144 55.3694 312.841 44.4477 314.988C44.3646 315.004 44.282 315.022 44.1998 315.043C44.1127 315.065 44.0032 315.087 43.7247 315.139L43.6901 315.145C43.4895 315.183 43.1831 315.24 42.8484 315.318C40.1735 315.803 37.6727 316.204 35.103 316.437C35.0313 316.441 34.9668 316.447 34.9103 316.452C34.7712 316.466 34.6529 316.483 34.5662 316.497C34.5047 316.506 34.4498 316.516 34.4055 316.524C31.3142 316.824 28.2607 317 25.2351 317C23.12 317 21.2266 315.74 20.4003 313.758C19.5946 311.825 20.0259 309.609 21.5295 308.073L21.5332 308.069C24.3453 305.19 26.8571 302.131 29.2014 298.919Z" stroke="white" stroke-width="10" stroke-linejoin="round"/>
</g>
<g filter="url(#filter1_d_29_8)">
<path d="M166.14 117.454L184.486 108.286H248.75V143.214H207.045C199.089 137.72 189.426 134.482 179 134.482C168.574 134.482 158.947 137.72 150.955 143.214H109.25V119.929H155.75C159.346 119.929 162.907 119.092 166.14 117.454ZM86 119.929V224.714C86 237.558 96.4262 248 109.25 248H248.75C261.574 248 272 237.558 272 224.714V108.286C272 95.4422 261.574 85 248.75 85H184.486C180.889 85 177.329 85.8368 174.096 87.4741L155.75 96.6429H144.125V90.8214C144.125 87.6196 141.509 85 138.312 85H115.062C111.866 85 109.25 87.6196 109.25 90.8214V96.6429C96.4262 96.6429 86 107.085 86 119.929ZM147.031 183.964C147.031 175.473 150.399 167.329 156.395 161.324C162.39 155.32 170.521 151.946 179 151.946C187.479 151.946 195.61 155.32 201.605 161.324C207.601 167.329 210.969 175.473 210.969 183.964C210.969 192.456 207.601 200.6 201.605 206.604C195.61 212.609 187.479 215.982 179 215.982C170.521 215.982 162.39 212.609 156.395 206.604C150.399 200.6 147.031 192.456 147.031 183.964Z" fill="white"/>
</g>
<defs>
<filter id="filter0_d_29_8" x="11" y="36" width="335" height="294" filterUnits="userSpaceOnUse" color-interpolation-filters="sRGB">
<feFlood flood-opacity="0" result="BackgroundImageFix"/>
<feColorMatrix in="SourceAlpha" type="matrix" values="0 0 0 0 0 0 0 0 0 0 0 0 0 0 0 0 0 0 127 0" result="hardAlpha"/>
<feOffset dy="4"/>
<feGaussianBlur stdDeviation="2"/>
<feComposite in2="hardAlpha" operator="out"/>
<feColorMatrix type="matrix" values="0 0 0 0 0 0 0 0 0 0 0 0 0 0 0 0 0 0 0.25 0"/>
<feBlend mode="normal" in2="BackgroundImageFix" result="effect1_dropShadow_29_8"/>
<feBlend mode="normal" in="SourceGraphic" in2="effect1_dropShadow_29_8" result="shape"/>
</filter>
<filter id="filter1_d_29_8" x="86" y="85" width="194" height="171" filterUnits="userSpaceOnUse" color-interpolation-filters="sRGB">
<feFlood flood-opacity="0" result="BackgroundImageFix"/>
<feColorMatrix in="SourceAlpha" type="matrix" values="0 0 0 0 0 0 0 0 0 0 0 0 0 0 0 0 0 0 127 0" result="hardAlpha"/>
<feOffset dx="8" dy="8"/>
<feComposite in2="hardAlpha" operator="out"/>
<feColorMatrix type="matrix" values="0 0 0 0 0 0 0 0 0 0 0 0 0 0 0 0 0 0 0.25 0"/>
<feBlend mode="normal" in2="BackgroundImageFix" result="effect1_dropShadow_29_8"/>
<feBlend mode="normal" in="SourceGraphic" in2="effect1_dropShadow_29_8" result="shape"/>
</filter>
</defs>
</svg>
