<svg width="358" height="358" viewBox="0 0 358 358" fill="none" xmlns="http://www.w3.org/2000/svg">
<path d="M178.541 41C267.087 41 337 99.1043 337 168.756C337 238.407 267.087 296.512 178.541 296.512C155.427 296.512 133.527 292.527 113.772 285.386C112.306 284.856 110.683 285.041 109.379 285.875L109.122 286.051C101.809 291.395 89.741 298.803 75.4082 305.032L75.3994 305.036C65.9982 309.144 55.3689 312.841 44.4473 314.987L44.2002 315.043C44.1131 315.065 44.0031 315.086 43.7246 315.139C43.5394 315.173 43.2475 315.231 42.9219 315.305C40.1997 315.799 37.6598 316.207 35.0469 316.441C34.9973 316.445 34.9514 316.448 34.9102 316.452C34.7712 316.466 34.6531 316.483 34.5664 316.497C34.5088 316.506 34.4568 316.515 34.4141 316.522C31.3199 316.823 28.2637 317 25.2354 317C23.1203 317 21.2267 315.74 20.4004 313.758C19.5948 311.825 20.0259 309.61 21.5293 308.073L21.5332 308.069C24.349 305.186 26.8631 302.123 29.21 298.905C30.1919 297.576 31.1245 296.242 32.0117 294.906C32.2983 294.641 32.5578 294.343 32.7793 294.011C33.9691 292.227 35.0954 290.439 36.1582 288.647C42.7915 277.641 49.2316 262.971 50.5244 246.308C50.6288 244.962 50.1848 243.631 49.293 242.617C30.8361 221.646 20.083 196.175 20.083 168.756C20.0832 99.1045 89.9949 41.0002 178.541 41Z" fill="#00626D" stroke="white" stroke-width="10" stroke-linejoin="round"/>
<path d="M174.14 125.454L192.486 116.286H256.75V151.214H215.045C207.089 145.72 197.426 142.482 187 142.482C176.574 142.482 166.947 145.72 158.955 151.214H117.25V127.929H163.75C167.346 127.929 170.907 127.092 174.14 125.454ZM94 127.929V232.714C94 245.558 104.426 256 117.25 256H256.75C269.574 256 280 245.558 280 232.714V116.286C280 103.442 269.574 93 256.75 93H192.486C188.889 93 185.329 93.8368 182.096 95.4741L163.75 104.643H152.125V98.8214C152.125 95.6196 149.509 93 146.312 93H123.062C119.866 93 117.25 95.6196 117.25 98.8214V104.643C104.426 104.643 94 115.085 94 127.929ZM155.031 191.964C155.031 183.473 158.399 175.329 164.395 169.324C170.39 163.32 178.521 159.946 187 159.946C195.479 159.946 203.61 163.32 209.605 169.324C215.601 175.329 218.969 183.473 218.969 191.964C218.969 200.456 215.601 208.6 209.605 214.604C203.61 220.609 195.479 223.982 187 223.982C178.521 223.982 170.39 220.609 164.395 214.604C158.399 208.6 155.031 200.456 155.031 191.964Z" fill="#004A52"/>
<path d="M166.14 117.454L184.486 108.286H248.75V143.214H207.045C199.089 137.72 189.426 134.482 179 134.482C168.574 134.482 158.947 137.72 150.955 143.214H109.25V119.929H155.75C159.346 119.929 162.907 119.092 166.14 117.454ZM86 119.929V224.714C86 237.558 96.4262 248 109.25 248H248.75C261.574 248 272 237.558 272 224.714V108.286C272 95.4422 261.574 85 248.75 85H184.486C180.889 85 177.329 85.8368 174.096 87.4741L155.75 96.6429H144.125V90.8214C144.125 87.6196 141.509 85 138.312 85H115.062C111.866 85 109.25 87.6196 109.25 90.8214V96.6429C96.4262 96.6429 86 107.085 86 119.929ZM147.031 183.964C147.031 175.473 150.399 167.329 156.395 161.324C162.39 155.32 170.521 151.946 179 151.946C187.479 151.946 195.61 155.32 201.605 161.324C207.601 167.329 210.969 175.473 210.969 183.964C210.969 192.456 207.601 200.6 201.605 206.604C195.61 212.609 187.479 215.982 179 215.982C170.521 215.982 162.39 212.609 156.395 206.604C150.399 200.6 147.031 192.456 147.031 183.964Z" fill="white"/>
</svg>
