<svg width="358" height="358" viewBox="0 0 358 358" fill="none" xmlns="http://www.w3.org/2000/svg">
<rect x="19" y="19" width="320" height="320" rx="160" fill="url(#paint0_linear_2005_2)" stroke="white" stroke-width="10"/>
<path d="M187 69C195.159 69 201.75 75.5914 201.75 83.75V88.5438C244.94 94.9508 279.049 129.106 285.456 172.25H290.25C298.409 172.25 305 178.841 305 187C305 195.159 298.409 201.75 290.25 201.75H285.456C279.049 244.94 244.894 279.049 201.75 285.456V290.25C201.75 298.409 195.159 305 187 305C178.841 305 172.25 298.409 172.25 290.25V285.456C129.06 279.049 94.9508 244.94 88.5438 201.75H83.75C75.5914 201.75 69 195.159 69 187C69 178.841 75.5914 172.25 83.75 172.25H88.5438C94.9508 129.06 129.06 94.9508 172.25 88.5438V83.75C172.25 75.5914 178.841 69 187 69ZM118.505 201.75C124.266 228.623 145.423 249.734 172.25 255.495V246C172.25 237.841 178.841 231.25 187 231.25C195.159 231.25 201.75 237.841 201.75 246V255.495C228.623 249.734 249.734 228.577 255.495 201.75H246C237.841 201.75 231.25 195.159 231.25 187C231.25 178.841 237.841 172.25 246 172.25H255.495C249.734 145.377 228.623 124.266 201.75 118.505V128C201.75 136.159 195.159 142.75 187 142.75C178.841 142.75 172.25 136.159 172.25 128V118.505C145.377 124.266 124.266 145.377 118.505 172.25H128C136.159 172.25 142.75 178.841 142.75 187C142.75 195.159 136.159 201.75 128 201.75H118.505ZM187 172.25C190.912 172.25 194.664 173.804 197.43 176.57C200.196 179.336 201.75 183.088 201.75 187C201.75 190.912 200.196 194.664 197.43 197.43C194.664 200.196 190.912 201.75 187 201.75C183.088 201.75 179.336 200.196 176.57 197.43C173.804 194.664 172.25 190.912 172.25 187C172.25 183.088 173.804 179.336 176.57 176.57C179.336 173.804 183.088 172.25 187 172.25Z" fill="black" fill-opacity="0.25"/>
<path d="M179 61C187.159 61 193.75 67.5914 193.75 75.75V80.5438C236.94 86.9508 271.049 121.106 277.456 164.25H282.25C290.409 164.25 297 170.841 297 179C297 187.159 290.409 193.75 282.25 193.75H277.456C271.049 236.94 236.894 271.049 193.75 277.456V282.25C193.75 290.409 187.159 297 179 297C170.841 297 164.25 290.409 164.25 282.25V277.456C121.06 271.049 86.9508 236.94 80.5438 193.75H75.75C67.5914 193.75 61 187.159 61 179C61 170.841 67.5914 164.25 75.75 164.25H80.5438C86.9508 121.06 121.06 86.9508 164.25 80.5438V75.75C164.25 67.5914 170.841 61 179 61ZM110.505 193.75C116.266 220.623 137.423 241.734 164.25 247.495V238C164.25 229.841 170.841 223.25 179 223.25C187.159 223.25 193.75 229.841 193.75 238V247.495C220.623 241.734 241.734 220.577 247.495 193.75H238C229.841 193.75 223.25 187.159 223.25 179C223.25 170.841 229.841 164.25 238 164.25H247.495C241.734 137.377 220.623 116.266 193.75 110.505V120C193.75 128.159 187.159 134.75 179 134.75C170.841 134.75 164.25 128.159 164.25 120V110.505C137.377 116.266 116.266 137.377 110.505 164.25H120C128.159 164.25 134.75 170.841 134.75 179C134.75 187.159 128.159 193.75 120 193.75H110.505ZM179 164.25C182.912 164.25 186.664 165.804 189.43 168.57C192.196 171.336 193.75 175.088 193.75 179C193.75 182.912 192.196 186.664 189.43 189.43C186.664 192.196 182.912 193.75 179 193.75C175.088 193.75 171.336 192.196 168.57 189.43C165.804 186.664 164.25 182.912 164.25 179C164.25 175.088 165.804 171.336 168.57 168.57C171.336 165.804 175.088 164.25 179 164.25Z" fill="white"/>
<defs>
<linearGradient id="paint0_linear_2005_2" x1="324.007" y1="14" x2="33.9927" y2="344" gradientUnits="userSpaceOnUse">
<stop stop-color="#4D4D4D"/>
<stop offset="0.328" stop-color="#D8D8D8"/>
<stop offset="0.7298" stop-color="#D8D8D8"/>
<stop offset="1" stop-color="#4D4D4D"/>
</linearGradient>
</defs>
</svg>
