<svg width="358" height="358" viewBox="0 0 358 358" fill="none" xmlns="http://www.w3.org/2000/svg">
<rect x="19" y="19" width="320" height="320" rx="160" fill="url(#paint0_linear_2030_97)" stroke="white" stroke-width="10"/>
<path d="M134.917 219.1L85.8965 134.998C83.7827 131.369 82.7885 127.204 83.0375 123.019C83.2865 118.834 84.7677 114.814 87.297 111.458L104.643 88.56C106.65 85.9022 109.252 83.745 112.244 82.2593C112.303 82.23 112.362 82.201 112.421 82.1724M238.13 219.1L287.15 134.998C289.249 131.359 290.225 127.188 289.956 123.003C289.688 118.818 288.188 114.803 285.642 111.458L268.404 88.56C266.397 85.9022 263.794 83.745 260.802 82.2593C260.744 82.2303 260.685 82.2016 260.627 82.1732M175.751 186.999L143.43 133.5M112.402 82.1395L112.421 82.1724M197.298 186.999L260.627 82.1732M260.647 82.1395L260.627 82.1732M143.429 133.5H143.43M112.421 82.1724C115.366 80.7434 118.601 80 121.881 80H251.166C254.446 80 257.682 80.7436 260.627 82.1732M112.421 82.1724L143.43 133.5M260.627 82.1732L229.619 133.5H143.43M240.393 240.5C240.393 270.047 216.275 294 186.524 294C156.773 294 132.655 270.047 132.655 240.5C132.655 210.953 156.773 187 186.524 187C216.275 187 240.393 210.953 240.393 240.5Z" stroke="black" stroke-opacity="0.25" stroke-width="14" stroke-linecap="round" stroke-linejoin="round"/>
<path d="M126.917 211.1L77.8965 126.998C75.7827 123.369 74.7885 119.204 75.0375 115.019C75.2865 110.834 76.7677 106.814 79.297 103.458L96.6428 80.56C98.6499 77.9022 101.252 75.745 104.244 74.2593C104.303 74.23 104.362 74.201 104.421 74.1724M230.13 211.1L279.15 126.998C281.249 123.359 282.225 119.188 281.956 115.003C281.688 110.818 280.188 106.803 277.642 103.458L260.404 80.56C258.397 77.9022 255.794 75.745 252.802 74.2593C252.744 74.2303 252.685 74.2016 252.627 74.1732M167.751 178.999L135.43 125.5M104.402 74.1395L104.421 74.1724M189.298 178.999L252.627 74.1732M252.647 74.1395L252.627 74.1732M135.429 125.5H135.43M104.421 74.1724C107.366 72.7434 110.601 72 113.881 72H243.166C246.446 72 249.682 72.7436 252.627 74.1732M104.421 74.1724L135.43 125.5M252.627 74.1732L221.619 125.5H135.43M232.393 232.5C232.393 262.047 208.275 286 178.524 286C148.773 286 124.655 262.047 124.655 232.5C124.655 202.953 148.773 179 178.524 179C208.275 179 232.393 202.953 232.393 232.5Z" stroke="white" stroke-width="14" stroke-linecap="round" stroke-linejoin="round"/>
<path d="M164.425 116C163.196 116 162.048 115.851 160.982 115.552C159.915 115.253 158.965 114.839 158.13 114.31C157.295 113.759 156.6 113.149 156.043 112.483C155.51 111.816 155.162 111.115 155 110.379L159.66 109C159.962 109.782 160.495 110.46 161.26 111.034C162.025 111.586 162.987 111.874 164.146 111.897C165.375 111.92 166.372 111.655 167.137 111.103C167.925 110.552 168.32 109.839 168.32 108.966C168.32 108.207 168.007 107.575 167.381 107.069C166.778 106.54 165.943 106.138 164.877 105.862L161.712 105.034C160.53 104.736 159.486 104.287 158.582 103.69C157.678 103.069 156.971 102.31 156.461 101.414C155.951 100.517 155.696 99.4713 155.696 98.2759C155.696 96 156.449 94.2299 157.956 92.9655C159.486 91.6782 161.642 91.0345 164.425 91.0345C165.978 91.0345 167.334 91.2644 168.493 91.7241C169.676 92.1609 170.661 92.7931 171.45 93.6207C172.238 94.4483 172.841 95.4253 173.258 96.5517L168.633 97.9655C168.354 97.1839 167.844 96.5172 167.102 95.9655C166.36 95.4138 165.422 95.1379 164.285 95.1379C163.126 95.1379 162.21 95.4023 161.538 95.931C160.889 96.4598 160.564 97.2069 160.564 98.1724C160.564 98.931 160.819 99.5287 161.329 99.9655C161.863 100.402 162.581 100.736 163.486 100.966L166.685 101.759C168.772 102.264 170.395 103.172 171.554 104.483C172.713 105.793 173.293 107.253 173.293 108.862C173.293 110.287 172.945 111.54 172.249 112.621C171.554 113.678 170.545 114.506 169.224 115.103C167.902 115.701 166.303 116 164.425 116Z" fill="black" fill-opacity="0.25"/>
<path d="M176.507 115.586V112.103C176.507 111.437 176.716 110.701 177.133 109.897C177.55 109.092 178.13 108.287 178.872 107.483C179.614 106.678 180.483 105.931 181.48 105.241L185.166 102.621C185.676 102.276 186.152 101.885 186.592 101.448C187.056 101.011 187.427 100.54 187.705 100.034C188.006 99.5057 188.157 99 188.157 98.5172C188.157 97.9195 188.006 97.3793 187.705 96.8966C187.427 96.4138 187.01 96.0345 186.453 95.7586C185.897 95.4828 185.213 95.3448 184.401 95.3448C183.706 95.3448 183.08 95.4828 182.523 95.7586C181.99 96.0345 181.55 96.4023 181.202 96.8621C180.854 97.3218 180.611 97.8161 180.471 98.3448L175.568 97.5172C175.8 96.3678 176.298 95.2989 177.063 94.3103C177.828 93.3218 178.825 92.5287 180.054 91.931C181.306 91.3103 182.72 91 184.297 91C186.105 91 187.659 91.3218 188.957 91.9655C190.255 92.6092 191.252 93.4943 191.948 94.6207C192.667 95.7241 193.026 97.0115 193.026 98.4828C193.026 99.977 192.609 101.31 191.774 102.483C190.962 103.632 189.838 104.713 188.401 105.724L185.097 108.103C184.424 108.563 183.845 109.069 183.358 109.621C182.871 110.172 182.5 110.782 182.245 111.448H193.339V115.586H176.507Z" fill="black" fill-opacity="0.25"/>
<path d="M205.271 116C203.625 116 202.222 115.713 201.063 115.138C199.927 114.54 198.988 113.724 198.246 112.69C197.527 111.655 196.994 110.46 196.646 109.103C196.322 107.724 196.159 106.241 196.159 104.655C196.159 102.816 196.356 101.08 196.751 99.4483C197.145 97.7931 197.736 96.3333 198.524 95.069C199.336 93.8046 200.367 92.8161 201.619 92.1034C202.871 91.3908 204.378 91.0345 206.14 91.0345C207.416 91.0345 208.656 91.2184 209.862 91.5862C211.09 91.954 212.192 92.4828 213.165 93.1724L210.801 96.6207C210.082 96.1149 209.305 95.7471 208.47 95.5172C207.659 95.2874 206.905 95.1724 206.21 95.1724C204.425 95.1724 203.022 95.954 202.002 97.5172C200.982 99.0805 200.495 101.552 200.541 104.931L199.602 104.276C200.136 103.011 200.959 102 202.071 101.241C203.184 100.483 204.506 100.103 206.036 100.103C207.589 100.103 208.957 100.46 210.14 101.172C211.345 101.885 212.284 102.862 212.957 104.103C213.652 105.322 214 106.69 214 108.207C214 109.701 213.641 111.046 212.922 112.241C212.203 113.414 211.183 114.333 209.862 115C208.563 115.667 207.033 116 205.271 116ZM205.271 112C206.036 112 206.72 111.828 207.323 111.483C207.926 111.138 208.401 110.667 208.749 110.069C209.096 109.471 209.27 108.782 209.27 108C209.27 107.218 209.096 106.529 208.749 105.931C208.401 105.31 207.926 104.828 207.323 104.483C206.72 104.115 206.036 103.931 205.271 103.931C204.506 103.931 203.81 104.115 203.184 104.483C202.582 104.828 202.106 105.31 201.758 105.931C201.411 106.529 201.237 107.218 201.237 108C201.237 108.782 201.411 109.471 201.758 110.069C202.106 110.667 202.582 111.138 203.184 111.483C203.81 111.828 204.506 112 205.271 112Z" fill="black" fill-opacity="0.25"/>
<path d="M158.425 111C157.196 111 156.048 110.851 154.982 110.552C153.915 110.253 152.965 109.839 152.13 109.31C151.295 108.759 150.6 108.149 150.043 107.483C149.51 106.816 149.162 106.115 149 105.379L153.66 104C153.962 104.782 154.495 105.46 155.26 106.034C156.025 106.586 156.987 106.874 158.146 106.897C159.375 106.92 160.372 106.655 161.137 106.103C161.925 105.552 162.32 104.839 162.32 103.966C162.32 103.207 162.007 102.575 161.381 102.069C160.778 101.54 159.943 101.138 158.877 100.862L155.712 100.034C154.53 99.7356 153.486 99.2874 152.582 98.6897C151.678 98.069 150.971 97.3103 150.461 96.4138C149.951 95.5172 149.696 94.4713 149.696 93.2759C149.696 91 150.449 89.2299 151.956 87.9655C153.486 86.6782 155.642 86.0345 158.425 86.0345C159.978 86.0345 161.334 86.2644 162.493 86.7241C163.676 87.1609 164.661 87.7931 165.45 88.6207C166.238 89.4483 166.841 90.4253 167.258 91.5517L162.633 92.9655C162.354 92.1839 161.844 91.5172 161.102 90.9655C160.36 90.4138 159.422 90.1379 158.285 90.1379C157.126 90.1379 156.21 90.4023 155.538 90.931C154.889 91.4598 154.564 92.2069 154.564 93.1724C154.564 93.931 154.819 94.5287 155.329 94.9655C155.863 95.4023 156.581 95.7356 157.486 95.9655L160.685 96.7586C162.772 97.2644 164.395 98.1724 165.554 99.4828C166.713 100.793 167.293 102.253 167.293 103.862C167.293 105.287 166.945 106.54 166.249 107.621C165.554 108.678 164.545 109.506 163.224 110.103C161.902 110.701 160.303 111 158.425 111Z" fill="white"/>
<path d="M170.507 110.586V107.103C170.507 106.437 170.716 105.701 171.133 104.897C171.55 104.092 172.13 103.287 172.872 102.483C173.614 101.678 174.483 100.931 175.48 100.241L179.166 97.6207C179.676 97.2759 180.152 96.8851 180.592 96.4483C181.056 96.0115 181.427 95.5402 181.705 95.0345C182.006 94.5057 182.157 94 182.157 93.5172C182.157 92.9195 182.006 92.3793 181.705 91.8966C181.427 91.4138 181.01 91.0345 180.453 90.7586C179.897 90.4828 179.213 90.3448 178.401 90.3448C177.706 90.3448 177.08 90.4828 176.523 90.7586C175.99 91.0345 175.55 91.4023 175.202 91.8621C174.854 92.3218 174.611 92.8161 174.471 93.3448L169.568 92.5172C169.8 91.3678 170.298 90.2989 171.063 89.3103C171.828 88.3218 172.825 87.5287 174.054 86.931C175.306 86.3103 176.72 86 178.297 86C180.105 86 181.659 86.3218 182.957 86.9655C184.255 87.6092 185.252 88.4943 185.948 89.6207C186.667 90.7241 187.026 92.0115 187.026 93.4828C187.026 94.977 186.609 96.3103 185.774 97.4828C184.962 98.6322 183.838 99.7126 182.401 100.724L179.097 103.103C178.424 103.563 177.845 104.069 177.358 104.621C176.871 105.172 176.5 105.782 176.245 106.448H187.339V110.586H170.507Z" fill="white"/>
<path d="M199.271 111C197.625 111 196.222 110.713 195.063 110.138C193.927 109.54 192.988 108.724 192.246 107.69C191.527 106.655 190.994 105.46 190.646 104.103C190.322 102.724 190.159 101.241 190.159 99.6552C190.159 97.8161 190.356 96.0805 190.751 94.4483C191.145 92.7931 191.736 91.3333 192.524 90.069C193.336 88.8046 194.367 87.8161 195.619 87.1034C196.871 86.3908 198.378 86.0345 200.14 86.0345C201.416 86.0345 202.656 86.2184 203.862 86.5862C205.09 86.954 206.192 87.4828 207.165 88.1724L204.801 91.6207C204.082 91.1149 203.305 90.7471 202.47 90.5172C201.659 90.2874 200.905 90.1724 200.21 90.1724C198.425 90.1724 197.022 90.954 196.002 92.5172C194.982 94.0805 194.495 96.5517 194.541 99.931L193.602 99.2759C194.136 98.0115 194.959 97 196.071 96.2414C197.184 95.4828 198.506 95.1034 200.036 95.1034C201.589 95.1034 202.957 95.4598 204.14 96.1724C205.345 96.8851 206.284 97.8621 206.957 99.1034C207.652 100.322 208 101.69 208 103.207C208 104.701 207.641 106.046 206.922 107.241C206.203 108.414 205.183 109.333 203.862 110C202.563 110.667 201.033 111 199.271 111ZM199.271 107C200.036 107 200.72 106.828 201.323 106.483C201.926 106.138 202.401 105.667 202.749 105.069C203.096 104.471 203.27 103.782 203.27 103C203.27 102.218 203.096 101.529 202.749 100.931C202.401 100.31 201.926 99.8276 201.323 99.4828C200.72 99.1149 200.036 98.931 199.271 98.931C198.506 98.931 197.81 99.1149 197.184 99.4828C196.582 99.8276 196.106 100.31 195.758 100.931C195.411 101.529 195.237 102.218 195.237 103C195.237 103.782 195.411 104.471 195.758 105.069C196.106 105.667 196.582 106.138 197.184 106.483C197.81 106.828 198.506 107 199.271 107Z" fill="white"/>
<path d="M184.003 223.249C185.456 227.654 183.973 232.101 180.691 233.189C177.41 234.278 173.57 231.587 172.118 227.182C170.665 222.777 172.148 218.33 175.429 217.242C178.71 216.153 182.55 218.844 184.003 223.249ZM171.193 234.103C173.113 237.43 172.646 241.302 170.157 242.739C167.668 244.177 164.092 242.647 162.183 239.32C160.273 235.993 160.72 232.121 163.209 230.684C165.697 229.246 169.273 230.776 171.183 234.103H171.193ZM168.024 254.908C173.347 240.398 182.804 236.712 187 236.712C191.195 236.712 200.653 240.398 205.976 254.908C206.342 255.904 206.504 256.972 206.504 258.04V258.204C206.504 260.854 204.381 263 201.76 263C200.592 263 199.434 262.856 198.306 262.569L189.367 260.31C187.812 259.919 186.187 259.919 184.633 260.31L175.693 262.569C174.566 262.856 173.408 263 172.239 263C169.619 263 167.495 260.854 167.495 258.204V258.04C167.495 256.972 167.658 255.904 168.024 254.908ZM203.843 242.739C201.354 241.302 200.886 237.43 202.806 234.103C204.726 230.776 208.292 229.246 210.781 230.684C213.27 232.121 213.737 235.993 211.817 239.32C209.897 242.647 206.331 244.177 203.843 242.739ZM192.495 233.189C189.214 232.101 187.731 227.654 189.184 223.249C190.636 218.844 194.476 216.153 197.758 217.242C201.039 218.33 202.522 222.777 201.069 227.182C199.617 231.587 195.777 234.278 192.495 233.189Z" fill="black" fill-opacity="0.25"/>
<path d="M179 233.712C180.734 233.712 188.547 235.724 193.281 248.63L193.282 248.631C193.413 248.986 193.499 249.445 193.503 249.996C192.835 249.977 192.179 249.886 191.542 249.724L191.531 249.721L182.592 247.462L182.584 247.46C180.231 246.869 177.769 246.869 175.415 247.46L175.408 247.462L166.469 249.721L166.458 249.724C165.82 249.886 165.164 249.978 164.495 249.996C164.5 249.445 164.587 248.986 164.718 248.631V248.63C169.453 235.724 177.266 233.712 179 233.712ZM158.055 227.608C158.316 227.838 158.598 228.16 158.847 228.593C158.869 228.632 158.895 228.67 158.919 228.709C159.141 229.119 159.265 229.501 159.325 229.827C159.059 229.596 158.771 229.272 158.519 228.831C158.262 228.383 158.123 227.963 158.055 227.608ZM199.948 227.6C199.882 227.952 199.745 228.373 199.486 228.821C199.231 229.264 198.941 229.59 198.675 229.822C198.741 229.47 198.879 229.05 199.137 228.603C199.393 228.159 199.682 227.832 199.948 227.6ZM169.009 214.014C169.104 214.036 169.277 214.101 169.532 214.28C170.117 214.69 170.832 215.534 171.255 216.814C171.678 218.096 171.606 219.201 171.379 219.882C171.278 220.184 171.175 220.34 171.11 220.416C171.014 220.393 170.842 220.329 170.588 220.151C170.003 219.741 169.289 218.897 168.866 217.616C168.444 216.334 168.514 215.229 168.741 214.549C168.842 214.247 168.944 214.09 169.009 214.014ZM188.177 214.014C188.241 214.089 188.344 214.246 188.445 214.549C188.672 215.229 188.743 216.334 188.32 217.616C187.898 218.897 187.184 219.741 186.599 220.151C186.343 220.33 186.171 220.393 186.075 220.416C186.01 220.34 185.908 220.183 185.808 219.882C185.581 219.201 185.51 218.096 185.933 216.814C186.355 215.534 187.069 214.69 187.654 214.28C187.909 214.102 188.081 214.037 188.177 214.014Z" fill="white" stroke="white" stroke-width="10" stroke-linejoin="round"/>
<defs>
<linearGradient id="paint0_linear_2030_97" x1="371.507" y1="-33.5" x2="53" y2="285.007" gradientUnits="userSpaceOnUse">
<stop stop-color="#5500FF"/>
<stop offset="1" stop-color="#A50034"/>
</linearGradient>
</defs>
</svg>
