<svg width="288" height="288" viewBox="0 0 288 288" fill="none" xmlns="http://www.w3.org/2000/svg">
<path d="M145 275.175C218.454 275.175 278 215.629 278 142.175C278 68.7211 218.454 9.17499 145 9.17499C71.5461 9.17499 12 68.7211 12 142.175C12 215.629 71.5461 275.175 145 275.175Z" fill="#3EB6F8"/>
<mask id="mask0_4005_79" style="mask-type:luminance" maskUnits="userSpaceOnUse" x="11" y="9" width="267" height="267">
<path d="M144.97 275.585C218.44 275.585 278 216.025 278 142.555C278 69.0846 218.44 9.52502 144.97 9.52502C71.4995 9.52502 11.9399 69.0846 11.9399 142.555C11.9399 216.025 71.4995 275.585 144.97 275.585Z" fill="white"/>
</mask>
<g mask="url(#mask0_4005_79)">
<path d="M185.688 4.82181C170.553 7.27319 155.488 12.0334 143.174 21.1691C130.86 30.3047 121.568 44.2434 120.499 59.536C120.342 61.8021 120.371 64.1394 121.183 66.2488C122.637 70.0684 126.371 72.534 130.091 74.23C146.88 81.8407 166.562 78.5484 184.448 83.0094C189.251 84.2065 194.368 86.3586 196.492 90.8338C198.359 94.7817 197.489 99.7842 199.998 103.376C201.836 105.998 205.128 107.238 208.321 107.594C219.58 108.849 230.697 101.095 241.757 103.518C248.113 104.915 253.244 109.447 258.859 112.725C275.349 122.345 297.782 120.464 312.447 108.25" fill="#478C41"/>
<path d="M20.2205 135.201C17.7406 138.023 17.37 140.688 13.3652 140.574C9.77363 140.474 6.45286 136.954 5.0419 133.961C3.1321 129.899 3.08935 125.239 3.18911 120.763C3.51691 106.625 5.01339 92.0595 11.8117 79.6601C14.6906 74.401 18.4532 69.6836 22.1873 64.9946C25.451 60.9042 28.7718 56.7568 33.0332 53.7211C37.5227 50.5144 46.188 46.7233 49.1524 52.752C52.1169 58.7806 51.4898 71.0233 52.0314 78.0496C53.1288 92.2163 52.459 108.079 42.5679 118.284C36.0404 125.011 26.4202 128.175 20.249 135.229L20.2205 135.201Z" fill="#478C41"/>
<path d="M20.1633 206.761C25.6077 193.663 42.3683 186.609 55.5515 191.868C65.8274 195.972 72.5116 205.664 79.8515 213.944C84.8398 219.56 90.5264 224.805 97.4102 227.797C104.294 230.79 112.617 231.261 119.159 227.584C120.998 226.558 122.665 225.232 124.603 224.405C131.901 221.327 140.039 226.415 145.54 232.116C151.041 237.817 156.172 244.758 163.868 246.682C168.258 247.779 172.89 247.038 177.351 246.283C180.444 245.769 183.522 245.242 186.615 244.729C188.168 244.473 189.779 244.216 191.304 244.587C193.356 245.085 194.981 246.653 196.149 248.406C200.924 255.546 198.943 265.58 193.784 272.45C188.624 279.319 180.914 283.737 173.431 287.956" fill="#478C41"/>
<path d="M252.916 241.366C255.652 232.059 248.341 221.17 238.692 220.172C233.804 219.674 228.972 221.355 224.397 223.137C223.4 223.522 222.302 223.921 221.276 223.607C219.894 223.18 219.21 221.626 218.91 220.201C217.4 212.804 221.832 205.45 227.177 200.105C232.521 194.761 238.977 190.442 243.282 184.228C245.334 181.278 246.873 177.829 246.816 174.238C246.759 170.119 244.636 166.299 244.094 162.209C243.082 154.427 248.227 146.759 255.111 142.997C261.995 139.234 270.247 138.792 278.043 139.69" fill="#478C41"/>
<path d="M155.203 285.847L103.354 280.131L29.855 224.192L24.5389 200.918L172.348 264.198L155.203 285.847Z" fill="#478C41"/>
</g>
<path d="M84.1323 45.5978L69.9027 112.536L64.1767 120.336L62.8236 143.892L32 155.663L63.023 164.957L45.147 168.345L49.0925 173.938L77.338 187.83L102.82 209.165L137.86 216.695L179.324 218.175L205.618 208.667L215.132 204.141L210.46 187.147L231 176.514L230.088 173.796L217.739 167.277L221.2 163.69L224.662 128.492L229.647 89.0802L224.562 74.1496L213.323 73.2244L171.618 104.025C171.618 104.025 144.512 91.7418 137.162 92.2542C129.812 92.7665 131.721 85.4649 131.721 85.4649L96.5814 48.1313L90.0292 40.175L84.1323 45.6121V45.5978Z" fill="#606161"/>
<path d="M223.029 161.111C223.044 161.012 223.072 160.912 223.115 160.812C223.5 159.886 224.098 158.46 224.283 157.434L225.894 148.284L227.875 134.146L228.231 130.312C229.2 119.923 229.956 109.932 232.592 99.7557L232.678 98.6297L233.832 91.3896L234.887 84.9191C234.887 84.9191 234.916 84.7909 234.93 84.7339L235.856 81.6126C235.899 81.4701 235.913 81.3276 235.913 81.1851V76.4818C235.913 75.5269 235.03 74.8143 234.103 75.0281L233.248 75.2134C232.778 75.3132 232.393 75.641 232.193 76.0685L231.125 78.5057C230.526 79.8739 228.516 79.6173 228.288 78.1493C227.818 75.2704 227.362 72.1349 227.533 71.8071C227.761 71.4081 227.604 70.4674 227.348 69.7405C227.148 69.2132 226.664 68.8284 226.093 68.7714C218.568 67.9733 215.618 70.5244 211.043 73.2323L206.539 75.9118C206.539 75.9118 206.468 75.9545 206.44 75.983L196.62 82.9951L190.363 87.4418C190.363 87.4418 190.306 87.4845 190.278 87.4988L181.969 92.5298C181.969 92.5298 181.897 92.5726 181.869 92.6011L171.778 99.9124C171.322 100.24 170.724 100.283 170.211 100.041C168.785 99.3424 167.674 98.1167 166.348 97.2045C159.179 92.259 144.571 86.1306 141.863 85.0046C141.578 84.8906 141.35 84.6769 141.179 84.4061C139.768 82.1827 137.017 80.6007 135.136 78.8477L126.984 71.2655L123.107 67.8165C123.107 67.8165 123.05 67.7595 123.022 67.731L120.299 64.8948C117.834 62.3152 115.026 60.0348 112.518 57.4837L108.613 53.4788C105.634 50.4431 102.84 47.2221 99.6052 44.4714L93.4768 39.2694C92.0801 38.0864 90.2558 37.6589 88.2748 37.6874C86.4362 37.7586 85.2105 38.3857 84.3982 39.9392C84.2271 40.2813 83.9421 40.5378 83.5858 40.6946C81.1914 41.7635 79.9515 44.3716 80.4075 47.0225C80.436 47.1936 80.436 47.3646 80.4075 47.5356C80.0227 49.4739 77.5001 62.0301 76.2887 66.3343C75.1912 70.2394 74.7209 74.23 73.9085 78.2206L71.9987 87.5843L68.8775 101.936L68.0651 105.656C67.7231 107.238 64.1458 114.877 62.6493 115.889C61.0388 116.958 60.5542 119.851 60.2407 121.619L56.9342 137.139L57.49 138.123C57.6468 138.379 56.8202 139.12 56.7916 139.405L56.6491 141.643C56.6064 142.241 56.2216 142.74 55.6657 142.954L42.9955 147.529C38.221 149.254 33.6033 150.907 29.2992 153.529C27.4749 154.627 27.5604 158.831 29.627 159.444C33.133 160.499 36.411 161.083 40.0738 161.439C43.8364 161.795 48.9957 162.993 52.402 163.933C52.4875 163.962 52.573 163.976 52.6585 163.976L54.098 164.09C54.3118 164.104 54.5968 164.589 54.4543 164.746C54.2405 164.974 53.2999 165.829 52.9863 165.843L46.188 166.057C45.0193 166.1 43.3661 167.867 42.4254 169.007C42.0976 169.406 42.0121 169.933 42.1546 170.418C42.7817 172.385 44.492 173.24 46.245 174.01C48.1121 174.836 49.8936 176.447 51.6609 177.53C55.3949 179.796 59.9271 180.081 64.0888 181.492C64.1885 181.521 64.2741 181.563 64.3596 181.606C66.925 183.003 70.0747 185.312 72.2838 187.35L75.2055 190.058L79.3671 193.849L82.3031 196.4C84.2984 198.124 85.9516 199.863 88.1892 201.345C92.0088 203.896 93.1205 207.117 96.9258 208.585C97.0256 208.628 97.1111 208.671 97.1966 208.728L103.297 212.89C104.765 214.386 110.793 215.17 115.14 216.624L123.136 219.303C123.136 219.303 123.25 219.332 123.307 219.346L131.587 221.099C136.875 222.211 141.222 221.469 146.68 222.396C148.177 222.652 149.787 223.294 151.341 223.18L164.88 222.225L177.85 221.184C177.85 221.184 177.964 221.184 178.007 221.184L192.074 221.612C192.202 221.512 192.772 220.315 192.487 220.158L191.047 219.46C190.135 219.004 189.152 218.106 188.967 217.436L199.855 216.467C202.335 216.253 204.459 214.97 206.497 213.531L211.856 209.74C212.041 209.255 212.112 208.215 211.699 207.93L209.105 206.177C213.067 206.505 215.96 206.277 218.64 204.395C219.48 203.811 219.509 202.571 218.697 201.958L217.499 201.075C217.115 200.789 216.944 200.333 216.944 199.863C217.001 196.272 214.378 192.224 213.979 186.951C213.936 186.352 214.278 185.782 214.82 185.525L218.64 183.658C218.64 183.658 218.725 183.616 218.768 183.601L224.882 181.292C227.975 180.124 231.381 179.44 234.26 177.573C235.956 176.475 235.3 173.283 233.79 171.843C230.155 168.394 224.782 167.995 219.409 166.655L221.077 166.328C221.675 166.214 222.146 165.729 222.26 165.131L222.987 161.154L223.029 161.111ZM179.247 101.509C179.389 101.466 179.532 101.409 179.674 101.323L182.924 99.2853L188.582 95.9218L180.7 106.269C180.23 106.882 179.361 107.039 178.705 106.625C177.821 106.055 176.938 105.3 176.268 104.074C175.797 103.19 178.106 101.836 179.232 101.509H179.247ZM49.2237 159.601L49.0955 158.546L44.9908 157.791C44.9908 157.791 44.9053 157.776 44.8626 157.762L41.6986 156.878C41.5418 156.836 41.4135 156.764 41.2853 156.679C41.214 156.636 41.1427 156.579 41.0572 156.536C39.9741 155.895 40.0453 154.313 41.214 153.843L57.9033 147.087C58.9865 146.645 60.1267 147.572 59.9271 148.726C59.3713 151.947 58.958 154.926 58.9295 158.047C58.9295 158.118 58.9295 158.19 58.9295 158.261L59.1433 160.142C59.2715 161.225 58.2311 162.081 57.1907 161.738C53.7987 160.584 49.2237 159.729 49.2095 159.601H49.2237ZM55.566 175.378C55.4947 175.364 55.4234 175.335 55.3522 175.307C54.2975 174.893 52.1454 173.782 51.2761 173.126L49.2095 171.544C48.0693 170.675 48.6964 168.836 50.1359 168.865C53.0718 168.907 57.5185 169.492 61.5376 166.199C62.2787 165.587 63.4047 165.886 63.818 166.769L68.0509 175.848C68.5782 176.974 67.5663 178.214 66.3549 177.929L55.566 175.392V175.378ZM219.908 121.676C217.214 131.809 215.433 141.686 214.549 151.933C214.549 151.976 214.549 152.004 214.549 152.047L213.11 160.37C212.967 161.197 213.523 161.995 214.364 162.109C215.347 162.237 216.416 162.18 216.687 161.681L219.894 155.596L219.423 161.197C219.381 161.696 219.081 162.152 218.64 162.394L215.989 163.805L212.54 165.829C212.155 166.057 211.884 166.427 211.827 166.855C211.713 167.682 211.713 168.808 211.784 169.748C211.827 170.461 212.397 171.031 213.11 171.116C217.328 171.615 221.176 172.214 225.281 173.14C225.495 173.183 225.694 173.283 225.88 173.425L226.664 174.024C227.561 174.708 227.39 176.119 226.364 176.575L219.438 179.639C215.191 181.521 208.121 185.682 208.563 187.093C208.635 187.335 213.281 198.694 211.585 199.364L206.611 200.063C206.012 200.148 205.528 200.576 205.371 201.16L203.618 207.73C203.461 208.343 202.934 208.771 202.321 208.828C198.145 209.198 185.575 211.564 183.408 213.274C183.18 213.46 182.924 213.559 182.624 213.588C178.149 213.944 149.032 216.039 147.208 216.182C147.136 216.182 147.079 216.182 147.022 216.182L142.59 215.911C142.59 215.911 142.504 215.911 142.476 215.911C141.578 215.783 130.319 214.115 127.81 213.673C123.178 212.818 118.874 211.422 114.542 209.882C114.356 209.825 114.185 209.797 114 209.797C111.221 209.882 104.152 207.602 102.783 207.16C102.627 207.103 102.484 207.032 102.356 206.932C98.8784 204.353 98.1373 202.756 97.1539 202.029C93.5481 199.322 90.8544 196.457 87.3484 193.649L84.2556 191.198C81.8755 189.302 80.037 187.164 78.2697 185.027L74.8207 180.865C71.4287 176.76 69.1198 172.057 67.096 167.14L65.1434 162.351C61.0958 152.46 64.4878 144.964 64.4736 137.538C64.4736 131.894 64.8156 126.65 66.4689 120.849C66.5544 120.564 66.7397 120.336 66.9677 120.151C68.7635 118.654 74.0938 109.39 74.7352 107.11L76.2031 101.922C78.3695 94.2116 80.0512 85.646 81.5192 77.8215L84.1131 63.0135C84.1131 63.0135 84.1274 62.9137 84.1274 62.8567L84.7117 54.5335C84.7117 54.4052 84.7545 54.2769 84.7972 54.1486C85.1678 53.1082 86.9493 47.9917 87.2486 46.6805C87.4624 45.7969 88.7593 44.5284 89.586 44.7992L92.2084 45.6116C92.2939 45.6401 92.3794 45.6686 92.4649 45.7113L96.3272 47.7494C96.484 47.8349 96.6265 47.9489 96.7548 48.0772C98.9782 50.6283 121.682 76.6671 122.822 77.6933L126.029 80.6435C126.642 81.1993 131.601 90.449 132.172 91.1901C132.243 91.2329 132.1 91.3611 132.214 91.5464L130.247 90.9621C130.034 90.8908 129.791 90.8766 129.578 90.9193L127.554 91.2614C126.984 90.1212 125.673 91.0333 124.504 91.1616L115.753 92.1735C111.477 92.6581 106.888 93.1427 103.069 95.8078L97.4959 99.6987C97.3677 99.7842 97.2536 99.8839 97.1681 100.012C97.1254 100.069 97.0684 100.14 97.0256 100.197C96.0992 101.423 97.3819 103.091 98.7929 102.492L105.99 99.4421C114.456 95.8363 127.411 95.1522 137.359 94.6391C137.687 94.6249 138.001 94.7104 138.271 94.8957L141.336 97.005C141.564 97.1618 141.835 97.2615 142.12 97.2615L148.476 97.5323C148.633 97.5323 148.804 97.5751 148.946 97.6321C155.175 99.998 161.46 102.877 166.733 107.067C167.959 108.05 168.771 109.062 170.253 109.832C172.462 110.986 174.187 113.195 175.541 115.248C175.655 115.419 175.812 115.576 175.983 115.69L180.102 118.298C180.287 118.412 180.501 118.497 180.729 118.526L184.848 118.996C185.403 119.053 185.945 118.811 186.259 118.355L186.843 117.485C187.199 116.958 187.185 116.245 186.786 115.747L183.408 111.328C182.966 110.744 183.009 109.917 183.522 109.39L189.936 102.706L192.986 99.8127C192.986 99.8127 193.057 99.7414 193.1 99.6987L199.271 92.4015C202.777 88.2542 207.01 84.7624 211.927 82.596C212.183 82.482 212.411 82.2967 212.568 82.0544L214.093 79.6886C214.25 79.4463 214.478 79.261 214.734 79.147C216.587 78.2919 217.77 77.0947 219.766 76.1968L221.975 75.1849C223.029 74.7003 224.169 75.5412 224.084 76.6956C224.027 77.394 224.041 78.1208 224.084 78.9047L225.053 93.3564C225.481 99.8697 224.127 105.813 222.488 112.198L221.419 116.402L220.008 121.704L219.908 121.676Z" fill="#090909"/>
<path d="M115.781 170.276C114.926 168.808 114.371 167.781 113.758 166.37C113.401 165.558 113.829 164.617 114.67 164.332C117.834 163.278 121.041 163.278 123.805 164.959C125.131 165.772 126.186 167.411 126.086 168.722C125.986 170.147 124.561 171.33 123.022 172.171C122.893 172.242 122.751 172.299 122.608 172.328C117.706 173.539 115.781 170.261 115.781 170.261V170.276Z" fill="#090909"/>
<path d="M156.528 154.655C157.099 159.43 152.737 166.413 148.433 166.157L146.025 166C145.369 165.957 144.471 163.762 144.542 163.007L145.583 151.334C145.711 149.838 146.196 147.059 147.336 146.645L151.184 145.263C152.752 144.707 155.431 145.491 155.688 147.6L156.543 154.655H156.528Z" fill="#090909"/>
<path d="M107.572 150.223L102.954 151.505C102.128 151.733 101.258 151.22 101.087 150.365C100.546 147.757 100.788 145.177 101.33 142.398C101.8 140.004 101.857 136.27 103.838 134.631C105.819 132.992 108.698 132.693 111.178 132.906C111.805 132.963 112.347 133.377 112.518 133.975C113.458 137.396 112.361 143.738 112.047 145.448C111.99 145.733 111.862 145.99 111.663 146.189L108.256 149.809C108.071 150.009 107.829 150.151 107.572 150.223Z" fill="#090909"/>
<path d="M145 275.175C218.454 275.175 278 215.629 278 142.175C278 68.7211 218.454 9.17499 145 9.17499C71.5461 9.17499 12 68.7211 12 142.175C12 215.629 71.5461 275.175 145 275.175Z" stroke="#09090B" stroke-width="7" stroke-miterlimit="10"/>
<path d="M87.9612 176.066C93.2461 176.812 98.4737 174.35 103.716 173.787C108.958 173.224 114.214 172.943 118.754 175.7C126.846 180.596 134.838 188.7 134.623 198.632C134.552 202.023 139.923 202.023 139.994 198.632C140.252 187.208 131.959 178.247 122.965 172.113C120.802 170.636 118.453 169.383 115.875 168.778C112.896 168.089 109.76 168.103 106.723 168.272C103.687 168.441 100.909 168.807 98.0441 169.369C95.3372 169.904 92.1719 171.381 89.3934 170.987C87.9468 170.79 86.5289 171.339 86.0849 172.83C85.7269 174.068 86.5289 175.869 87.9612 176.08V176.066Z" fill="#090909"/>
</svg>
