<svg width="358" height="476" viewBox="0 0 358 476" fill="none" xmlns="http://www.w3.org/2000/svg">
<g clip-path="url(#clip0_5_2)">
<g filter="url(#filter0_d_5_2)">
<path d="M322 191.614C322 255.623 234.859 369.578 196.652 416.596C187.491 427.801 170.509 427.801 161.348 416.596C123.141 369.578 36 255.623 36 191.614C36 113.983 100.052 51 179 51C257.948 51 322 113.983 322 191.614Z" fill="url(#paint0_linear_5_2)"/>
<path d="M200.523 419.761L200.527 419.755L200.532 419.749C219.688 396.176 251.171 355.751 277.89 313.132C291.248 291.825 303.478 269.871 312.382 249.132C321.249 228.476 327 208.617 327 191.614C327 111.143 260.63 46 179 46C97.3703 46 31 111.143 31 191.614C31 208.617 36.7505 228.476 45.6182 249.132C54.5223 269.871 66.7516 291.825 80.11 313.132C106.829 355.751 138.312 396.176 157.468 419.749L157.473 419.755L157.477 419.761C168.639 433.413 189.361 433.413 200.523 419.761Z" stroke="white" stroke-width="10"/>
</g>
<path d="M179 82C186.052 82 191.75 87.6977 191.75 94.75V108.576C223.784 113.915 249.085 139.216 254.424 171.25H268.25C275.302 171.25 281 176.948 281 184C281 191.052 275.302 196.75 268.25 196.75H254.424C249.085 228.784 223.784 254.085 191.75 259.424V273.25C191.75 280.302 186.052 286 179 286C171.948 286 166.25 280.302 166.25 273.25V259.424C134.216 254.085 108.915 228.784 103.576 196.75H89.75C82.6977 196.75 77 191.052 77 184C77 176.948 82.6977 171.25 89.75 171.25H103.576C108.915 139.216 134.216 113.915 166.25 108.576V94.75C166.25 87.6977 171.948 82 179 82ZM128 184C128 197.526 133.373 210.498 142.938 220.062C152.502 229.627 165.474 235 179 235C192.526 235 205.498 229.627 215.062 220.062C224.627 210.498 230 197.526 230 184C230 170.474 224.627 157.502 215.062 147.938C205.498 138.373 192.526 133 179 133C165.474 133 152.502 138.373 142.938 147.938C133.373 157.502 128 170.474 128 184ZM179 152.125C187.454 152.125 195.561 155.483 201.539 161.461C207.517 167.439 210.875 175.546 210.875 184C210.875 192.454 207.517 200.561 201.539 206.539C195.561 212.517 187.454 215.875 179 215.875C170.546 215.875 162.439 212.517 156.461 206.539C150.483 200.561 147.125 192.454 147.125 184C147.125 175.546 150.483 167.439 156.461 161.461C162.439 155.483 170.546 152.125 179 152.125Z" fill="white"/>
</g>
<defs>
<filter id="filter0_d_5_2" x="16" y="31" width="346" height="434" filterUnits="userSpaceOnUse" color-interpolation-filters="sRGB">
<feFlood flood-opacity="0" result="BackgroundImageFix"/>
<feColorMatrix in="SourceAlpha" type="matrix" values="0 0 0 0 0 0 0 0 0 0 0 0 0 0 0 0 0 0 127 0" result="hardAlpha"/>
<feOffset dx="10" dy="10"/>
<feGaussianBlur stdDeviation="10"/>
<feComposite in2="hardAlpha" operator="out"/>
<feColorMatrix type="matrix" values="0 0 0 0 0 0 0 0 0 0 0 0 0 0 0 0 0 0 0.25 0"/>
<feBlend mode="normal" in2="BackgroundImageFix" result="effect1_dropShadow_5_2"/>
<feBlend mode="normal" in="SourceGraphic" in2="effect1_dropShadow_5_2" result="shape"/>
</filter>
<linearGradient id="paint0_linear_5_2" x1="179" y1="51" x2="179" y2="425" gradientUnits="userSpaceOnUse">
<stop stop-color="#926F34"/>
<stop offset="1" stop-color="#DFBD69"/>
</linearGradient>
<clipPath id="clip0_5_2">
<rect width="358" height="476" fill="white"/>
</clipPath>
</defs>
</svg>
