<?xml version="1.0" encoding="UTF-8"?>
<svg id="Layer_1" xmlns="http://www.w3.org/2000/svg" viewBox="0 0 511.97 512.08">
  <defs>
    <style>
      .cls-1 {
        fill: #a50034;
        stroke: #000;
        stroke-miterlimit: 10;
      }

      .cls-2 {
        fill: #fff;
      }
    </style>
  </defs>
  <circle class="cls-1" cx="208" cy="201.75" r="129.75"/>
  <path class="cls-2" d="M416,208c0,45.9-14.9,88.3-40,122.7l126.6,126.7c12.5,12.5,12.5,32.8,0,45.3-12.5,12.5-32.8,12.5-45.3,0l-126.6-126.7c-34.4,25.2-76.8,40-122.7,40C93.1,416,0,322.9,0,208S93.1,0,208,0s208,93.1,208,208ZM288,176c0-44.2-35.8-80-80-80s-80,35.8-80,80c0,48.8,46.5,111.6,68.6,138.6,6,7.3,16.8,7.3,22.7,0,22.1-27,68.6-89.8,68.6-138.6h.1ZM176,176c0-17.67,14.33-32,32-32s32,14.33,32,32-14.33,32-32,32-32-14.33-32-32Z"/>
</svg>