<svg width="237" height="209" viewBox="0 0 237 209" fill="none" xmlns="http://www.w3.org/2000/svg">
<path d="M45.47 106.48L87.98 113.8L146.23 104.21L179.36 82.72L184.26 71.49L174.81 66.12L181.42 56.99L173.2 56.09L153.72 5.12998L130.98 21.73L119.74 39.65L85.01 46.84C85.01 46.84 57 28.26 42.59 30.12C42.59 30.12 41.6 68.1 48.2 83.57L36.43 87.48L48.27 93.24L43.39 95.89L49.9 100.19L45.47 106.48Z" fill="#606060"/>
<path d="M185.64 69.54C184.96 68.45 183.64 68.04 182.51 67.58C181.22 67.05 179.92 66.55 178.62 66.03C178.15 65.84 177.67 65.66 177.2 65.47C179.62 62.67 182.27 60.06 184.56 57.15C185.4 56.09 184.93 54.4 183.41 54.38C180.32 54.34 177.22 54.38 174.13 54.45C170.71 42.43 166.82 30.47 162.09 18.91C160.57 15.21 158.97 11.52 157.07 8.00998C156.68 7.27998 156.27 6.56998 155.84 5.85998C155.43 5.17998 154.96 4.14998 154.26 3.73998C153.47 3.26998 152.7 3.63998 151.97 3.97998C146.62 6.48998 141.64 10.26 137.11 13.99C129.22 20.49 122.11 28.48 118.33 38.09C114.82 38.23 111.28 38.76 107.83 39.29C101.49 40.26 95.36 41.85 89.22 43.72C87.83 44.14 86.44 44.58 85.06 45.03C82.65 43.05 80.05 41.26 77.43 39.58C71.04 35.5 64.15 32.1 56.93 29.8C52.04 28.24 46.98 27.23 41.86 26.88C41.23 26.84 40.39 27.41 40.29 28.07C39.29 35.12 39.06 42.22 39.65 49.32C40.24 56.5 41.55 63.61 43.12 70.64C44.01 74.6 44.98 78.55 45.96 82.49C44.04 83.11 42.12 83.72 40.21 84.34C39.16 84.68 38.12 85.02 37.07 85.37C36.52 85.56 35.8 85.72 35.31 86.06C34.4 86.7 34.12 88.29 35.31 88.87C38.41 90.36 41.55 91.75 44.62 93.3C43.84 93.7 43.05 94.08 42.28 94.47C41.21 95.01 41.23 96.73 42.28 97.28C43.38 97.86 44.49 98.45 45.58 99.04C46.26 99.41 46.95 99.79 47.62 100.17C47.06 100.69 46.48 101.2 45.9 101.69C45.23 102.25 44.56 102.79 43.85 103.29C43.56 103.5 43.27 103.7 42.96 103.88C42.81 103.97 42.67 104.05 42.52 104.13C42.52 104.13 42.5133 104.133 42.5 104.14C42.5 104.14 42.48 104.14 42.46 104.15C41.46 104.45 40.95 105.61 41.49 106.54C42.3 107.93 44.64 108.47 46.02 108.98C49.06 110.11 52.17 111.08 55.27 112.05C59.25 113.29 63.24 114.48 67.24 115.65C69.27 116.24 71.29 116.83 73.32 117.42C74.41 117.73 75.53 118.2 76.66 118.27C79.52 118.45 82.53 117.95 85.38 117.71C90.57 117.26 95.76 116.75 100.95 116.25C106.34 115.73 111.73 115.19 117.12 114.69C120.47 114.38 123.85 113.98 127.22 113.89C127.54 113.89 128.4 113.98 127.67 113.85C128.18 113.94 128.64 113.99 129.15 113.95C130.73 113.81 132.28 113.31 133.78 112.81C138.56 111.2 143.19 109.14 147.78 107.09C155.99 103.42 164.05 99.44 172.2 95.65C172.21 95.65 172.22 95.65 172.23 95.64H172.24C172.84 95.63 173.24 95.3 173.43 94.85C173.49 94.73 173.55 94.6 173.58 94.44C173.58 94.38 173.48 94.63 173.62 94.32C173.73 94.07 173.85 93.82 173.97 93.57C174.22 93.05 174.49 92.54 174.76 92.04C175.4 90.86 176.08 89.69 176.77 88.54C178.31 85.95 179.92 83.39 181.48 80.81C182.81 78.61 184.16 76.41 185.24 74.08C185.91 72.64 186.57 71.02 185.64 69.53V69.54ZM152.29 6.39998C152.29 6.39998 152.26 6.34998 152.24 6.32998C152.24 6.34998 152.27 6.37998 152.29 6.39998ZM172.31 95.64C172.41 95.63 172.38 95.64 172.31 95.64ZM182.11 73.1C181.47 74.39 180.75 75.65 180.03 76.9C178.23 79.98 176.32 83 174.48 86.05C173.66 87.41 172.85 88.78 172.09 90.17C171.66 90.95 171.1 91.83 170.73 92.71C170.28 92.92 169.85 93.18 169.5 93.34C168.04 94.02 166.59 94.72 165.14 95.41C160.56 97.6 155.98 99.79 151.36 101.92C146.51 104.16 141.64 106.37 136.66 108.31C134.82 109.03 132.97 109.73 131.07 110.26C130.42 110.44 129.77 110.6 129.11 110.71H129.07C128.96 110.71 128.84 110.71 128.73 110.73C128.69 110.73 128.67 110.73 128.64 110.73C128.62 110.73 128.6 110.73 128.56 110.71C126.18 110.34 123.52 110.87 121.14 111.07C116.21 111.5 111.29 111.98 106.37 112.46C97.07 113.36 87.75 114.51 78.41 114.98C77.95 115 77.48 115.01 77.02 115.02H76.79C76.5 114.88 76.11 114.83 75.81 114.74C71.75 113.58 67.7 112.4 63.65 111.19C59.92 110.08 56.19 108.94 52.48 107.74C50.51 107.1 48.16 106.35 46.28 105.61C47.01 105.04 47.7 104.42 48.34 103.88C49.41 102.99 51.82 101.43 51.81 99.82C51.8 98.18 49.1 97.22 47.92 96.58C47.5 96.35 47.08 96.13 46.66 95.9C47.41 95.5 48.15 95.09 48.84 94.61C49.8 93.95 49.97 92.43 48.84 91.8C46.11 90.29 43.28 88.98 40.45 87.67C40.77 87.57 41.09 87.46 41.41 87.36C43.73 86.61 46.06 85.88 48.38 85.11C49.23 84.83 49.74 84 49.51 83.11C45.15 65.76 41.08 48.19 43.3 30.23C56.55 31.47 69.2 37.46 79.92 45.13C81.27 46.1 82.02 46.65 83.15 47.58C83.3 47.71 83.45 47.85 83.61 47.96C84.46 48.57 85.07 48.42 85.93 48.14C91.44 46.36 97.01 44.62 102.68 43.44C108.13 42.3 113.9 41.32 119.49 41.25C120.25 41.25 120.81 40.74 121.06 40.06C124.16 31.47 130.3 24.27 137.06 18.29C141.8 14.09 147.02 10.25 152.62 7.26998C152.7 7.22998 152.79 7.18998 152.87 7.13998C153.25 7.74998 153.62 8.36998 153.97 8.98998C155.75 12.19 157.26 15.54 158.67 18.92C161.86 26.59 164.56 34.46 167.1 42.36C168.6 47.04 170.06 51.75 171.4 56.48C171.59 57.15 172.25 57.69 172.97 57.67C175.3 57.61 177.64 57.58 179.97 57.57C177.78 60.01 175.47 62.35 173.43 64.92C172.86 65.64 172.69 67.02 173.76 67.47C176.35 68.58 178.99 69.55 181.59 70.61C181.81 70.7 182.04 70.79 182.26 70.89C182.22 70.89 182.97 71.24 182.92 71.14C183.09 71.5 182.33 72.7 182.16 73.04L182.11 73.09V73.1Z" fill="#09090B"/>
<path d="M196.88 151.57L185.13 79L145.95 104.21L87.7 113.8L42.04 105.52L53.13 174.68L101.76 184.56L156.42 175.04L196.88 151.57Z" fill="white"/>
<path d="M165 170L152.28 175.473L108.86 182.623L99.31 184.193L87.71 181.493L87 181.323C87.07 180.953 87.15 180.583 87.24 180.213C88.54 174.443 91.34 169.213 95.24 164.823C96.74 163.143 98.4 161.573 100.2 160.163C106.5 155.193 114.51 151.953 123.28 151.183C125.48 150.983 127.72 150.943 129.99 151.083C130 151.073 130.02 151.073 130.03 151.073C130.04 151.073 130.06 151.073 130.07 151.083C130.35 151.093 130.63 151.113 130.91 151.133C138.22 151.683 144.96 153.873 150.71 157.263C150.71 157.263 150.72 157.263 150.72 157.273C152.7 158.433 154.55 159.753 156.28 161.193C158.74 163.233 163.14 167.5 165 170Z" fill="#3EB7F9"/>
<path d="M117.92 160.323C116.93 163.353 119.13 166.633 118.5 169.743C118.33 170.623 117.87 171.513 117.01 171.963C115.83 172.573 114.29 172.213 113.01 172.643C111.57 173.133 110.79 174.513 110.31 175.823C109.52 178.013 109.21 180.323 108.86 182.623L99.3099 184.193L87.7099 181.493C87.5399 181.073 87.3799 180.643 87.2399 180.213C88.5399 174.443 91.3399 169.213 95.2399 164.823L100.2 160.163C106.5 155.193 114.51 151.953 123.28 151.183C122.92 152.823 122.22 154.383 121.16 155.763C120.01 157.263 118.49 158.583 117.92 160.323Z" fill="#478D41"/>
<path d="M154.36 163.903C154.1 165.253 154.53 166.643 154.99 167.963C155.09 168.253 155.19 168.563 155.07 168.843C154.91 169.223 154.4 169.373 153.95 169.423C151.6 169.673 149.39 168.263 147.83 166.653C146.27 165.043 145.05 163.133 143.2 161.793C142.32 161.153 141.27 160.643 140.15 160.573C138.86 160.493 137.62 160.993 136.33 161.053C133.87 161.153 131.58 159.543 130.55 157.533C129.52 155.533 129.55 153.223 129.99 151.083V151.063H130.03C130.03 151.063 130.06 151.073 130.07 151.083L150.71 157.263C150.71 157.263 150.72 157.263 150.72 157.273C152.7 158.433 154.55 159.753 156.28 161.193C155.3 161.853 154.57 162.803 154.36 163.903Z" fill="#478D41"/>
<path d="M86.9999 181.323L99.3099 184.193L108.86 182.623L152.28 175.473L164.5 170C162.64 167.5 158.74 163.233 156.28 161.193C154.55 159.753 152.7 158.433 150.72 157.273C150.72 157.263 150.71 157.263 150.71 157.263C144.96 153.873 138.22 151.683 130.91 151.133C130.63 151.113 130.35 151.093 130.07 151.083C130.06 151.073 130.04 151.073 130.03 151.073C130.02 151.073 130 151.073 129.99 151.083C127.72 150.943 125.48 150.983 123.28 151.183C114.51 151.953 106.5 155.193 100.2 160.163C98.3999 161.573 96.7399 163.143 95.2399 164.823C91.3399 169.213 88.2999 175.553 86.9999 181.323ZM86.9999 181.323C87.0699 180.953 86.9099 181.693 86.9999 181.323Z" stroke="#09090B" stroke-width="3" stroke-miterlimit="10"/>
<path d="M196.88 151.57L185.13 79L145.95 104.21L87.7 113.8L42.04 105.52L53.13 174.68L101.76 184.56L156.42 175.04L196.88 151.57Z" stroke="#09090B" stroke-width="3" stroke-miterlimit="10"/>
<path d="M87.7 113.8L99.98 184.06" stroke="#09090B" stroke-width="3" stroke-miterlimit="10"/>
<path d="M145.7 103.96L156.42 175.04" stroke="#09090B" stroke-width="3" stroke-miterlimit="10"/>
<path d="M132.85 135.8L127.56 161.98C127.2 163.43 126.8 163.7 126.8 163.72C126.56 163.72 125.86 163.22 125.39 162.54L110.41 141.16C108.6 138.19 108.46 137.64 107.8 135.01L107.56 134.09C106.69 130.67 107.11 127.57 108.82 124.88C110.75 121.86 114.35 119.52 118.22 118.8C119.22 118.61 120.22 118.52 121.19 118.52C124.23 118.52 127.05 119.43 129.18 121.16C131.66 123.17 133.07 126.15 133.15 129.55V129.73C133.18 130.76 133.26 133.89 132.85 135.8Z" fill="#A50034"/>
<path d="M136.15 129.65V129.48C136.05 125.19 134.25 121.4 131.07 118.83C127.57 115.99 122.69 114.91 117.66 115.85C112.94 116.74 108.69 119.51 106.29 123.27C104.15 126.64 103.58 130.64 104.66 134.84L104.89 135.74C105.59 138.53 105.8 139.37 107.9 142.81L122.93 164.26C123.76 165.44 125.22 166.72 126.81 166.72C126.98 166.72 127.16 166.7 127.34 166.67C128.84 166.39 129.9 165.05 130.49 162.64L135.79 136.42C136.27 134.16 136.19 130.89 136.15 129.65ZM132.85 135.8L127.56 161.98C127.2 163.43 126.8 163.7 126.8 163.72C126.56 163.72 125.86 163.22 125.39 162.54L110.41 141.16C108.6 138.19 108.46 137.64 107.8 135.01L107.56 134.09C106.69 130.67 107.11 127.57 108.82 124.88C110.75 121.86 114.35 119.52 118.22 118.8C119.22 118.61 120.22 118.52 121.19 118.52C124.23 118.52 127.05 119.43 129.18 121.16C131.66 123.17 133.07 126.15 133.15 129.55V129.73C133.18 130.76 133.26 133.89 132.85 135.8Z" fill="#09090B"/>
<path d="M126.66 139.71C125.8 140.2 124.94 140.1 124.06 139.71L123.44 139.44C122.26 138.9 120.96 138.81 119.83 140.12C119.11 141.64 117 141.64 115.99 140.64C115.34 140 115 139.04 114.86 137.94C114.59 135.74 116.94 132.05 119.66 131.72L121.16 131.56C123.88 131.23 127.54 134.15 127.81 136.35C128 137.92 127.79 139.07 126.66 139.71Z" fill="white"/>
<path d="M117.23 130.73C118.48 130.46 119.13 128.59 118.69 126.54C118.25 124.49 116.88 123.05 115.64 123.32C114.39 123.59 113.74 125.46 114.18 127.51C114.62 129.56 115.99 131 117.23 130.73Z" fill="white"/>
<path d="M114.08 135.06C115.17 134.61 115.53 132.98 114.89 131.41C114.25 129.84 112.84 128.93 111.75 129.38C110.66 129.83 110.3 131.46 110.95 133.03C111.59 134.6 113 135.51 114.09 135.06H114.08Z" fill="white"/>
<path d="M128.69 129.47C128.8 127.78 127.94 126.34 126.77 126.26C125.6 126.18 124.55 127.49 124.44 129.18C124.33 130.87 125.19 132.31 126.36 132.38C127.53 132.46 128.58 131.15 128.69 129.46V129.47Z" fill="white"/>
<path d="M121.95 130.02C123.22 129.92 124.11 128.14 123.94 126.05C123.77 123.96 122.6 122.36 121.33 122.46C120.06 122.56 119.16 124.34 119.34 126.43C119.51 128.52 120.68 130.12 121.95 130.02Z" fill="white"/>
<path d="M143.09 77.37C139.72 82.71 135.17 88.13 129.04 90.33C126.83 91.13 124.22 91.66 121.87 91.22C120.02 90.87 118.06 90.17 116.32 89.24C116.67 88.72 116.88 88.05 117.18 87.13C117.47 86.23 117.23 84.23 116.5 83.67C115.5 82.9 113.63 83.23 112.19 83.5C110.63 83.8 108.37 84.35 107.76 85.56C107.4 86.29 107.93 87.67 108.44 88.34C109.22 89.37 110.12 90.05 111.05 90.42C110.94 90.59 110.83 90.75 110.72 90.91C110.06 91.88 109.3 92.79 108.48 93.62C106.78 95.33 104.5 96.47 102.2 97.12C95.86 98.91 88.9601 97.17 83.0501 94.67C82.1101 94.27 81.0501 94.4 80.4801 95.34C80.0101 96.12 80.22 97.51 81.15 97.91C88.26 100.91 96.5401 103.02 104.12 100.44C106.99 99.47 109.68 97.89 111.72 95.63C112.44 94.84 113.5 93.68 114.33 92.41C119.12 95.09 124.8 95.79 130.02 93.91C137.13 91.35 142.37 85.45 146.31 79.22C147.6 77.17 144.36 75.29 143.07 77.33L143.09 77.37Z" fill="#09090B"/>
<path d="M131.29 68.57C130.68 66.36 128.39 65.07 126.18 65.68C123.97 66.29 122.68 68.58 123.29 70.79L125.08 77.26C125.69 79.47 127.98 80.76 130.19 80.15C132.4 79.54 133.69 77.25 133.08 75.04L131.28 68.57H131.29Z" fill="#09090B"/>
<path d="M94.67 77.87C94.06 75.66 91.77 74.37 89.56 74.98C87.35 75.59 86.06 77.88 86.67 80.09L88.47 86.56C89.08 88.77 91.37 90.06 93.58 89.45C95.79 88.84 97.08 86.55 96.47 84.34L94.67 77.87Z" fill="#09090B"/>
<path fill-rule="evenodd" clip-rule="evenodd" d="M63.17 169.93C63.17 175.97 58.27 180.87 52.23 180.87C46.19 180.87 41.29 175.97 41.29 169.93C41.29 166.47 42.9 163.39 45.4 161.38C47.55 163.58 50.55 164.94 53.87 164.94C56.36 164.94 58.67 164.17 60.58 162.86C62.2 164.77 63.17 167.23 63.17 169.93Z" fill="#606060"/>
<path fill-rule="evenodd" clip-rule="evenodd" d="M44.7701 145.5C46.9401 142.9 50.2101 141.24 53.8701 141.24C55.0501 141.24 56.1901 141.41 57.2601 141.73C58.9801 139.67 60.0101 137.03 60.0101 134.14C60.0101 127.6 54.7001 122.29 48.1601 122.29C41.6201 122.29 36.3101 127.6 36.3101 134.14C36.3101 139.51 39.8801 144.04 44.7701 145.5Z" fill="#606060"/>
<path d="M44.7401 122.79C43.3201 120.65 44.3701 121.92 43.5001 116.5C43.3401 115.51 41.0501 115.04 40.0001 115.04C33.9601 115.04 29.0701 119.93 29.0701 125.98C29.0701 128.65 30.9901 132.86 30.9901 132.86C26.1301 138.76 25.0201 140.61 21.5601 146.12C21.5601 146.12 19.8001 152.84 20.8001 158.53L20.9901 159.63C22.3801 167.47 26.6401 174.51 32.9601 179.37L34.7901 180.78C34.7901 180.78 49.3201 180.87 52.2301 180.87C46.1901 180.87 41.2901 175.97 41.2901 169.93C41.2901 166.47 42.9001 163.39 45.4001 161.38C43.3101 159.24 42.0201 156.32 42.0201 153.09C42.0201 150.2 43.0501 147.55 44.7701 145.5C39.8801 144.04 36.3101 139.51 36.3101 134.14C36.3101 128.77 39.8601 124.26 44.7401 122.79Z" fill="#606060"/>
<path fill-rule="evenodd" clip-rule="evenodd" d="M57.26 141.73C56.19 141.41 55.05 141.24 53.87 141.24C50.21 141.24 46.94 142.9 44.77 145.5C43.05 147.56 42.02 150.2 42.02 153.09C42.02 156.32 43.31 159.24 45.4 161.38C47.55 163.58 50.55 164.94 53.87 164.94C56.36 164.94 58.67 164.17 60.58 162.86C63.69 160.72 65.72 157.14 65.72 153.09C65.72 147.72 62.15 143.19 57.26 141.73Z" fill="#606060"/>
<path d="M52.2301 180.87C58.2701 180.87 63.1701 175.97 63.1701 169.93C63.1701 167.23 62.1901 164.77 60.5801 162.86M52.2301 180.87C46.1901 180.87 41.2901 175.97 41.2901 169.93C41.2901 166.47 42.9001 163.39 45.4001 161.38M52.2301 180.87C49.3201 180.87 34.7901 180.78 34.7901 180.78L32.9601 179.37C26.6401 174.51 22.3801 167.47 20.9901 159.63L20.8001 158.53C19.8001 152.84 21.5601 146.12 21.5601 146.12C25.0201 140.61 26.1301 138.76 30.9901 132.86C30.9901 132.86 29.0701 128.65 29.0701 125.98C29.0701 119.93 33.9601 115.04 40.0001 115.04C41.0501 115.04 43.3401 115.51 43.5001 116.5C44.3701 121.92 43.3201 120.65 44.7401 122.79C39.8601 124.26 36.3101 128.78 36.3101 134.14M60.5801 162.86C58.6701 164.17 56.3601 164.94 53.8701 164.94C50.5501 164.94 47.5501 163.58 45.4001 161.38M60.5801 162.86C63.6901 160.72 65.7201 157.14 65.7201 153.09C65.7201 147.72 62.1501 143.19 57.2601 141.73M45.4001 161.38C43.3101 159.24 42.0201 156.32 42.0201 153.09C42.0201 150.2 43.0501 147.55 44.7701 145.5M36.3101 134.14C36.3101 139.51 39.8801 144.04 44.7701 145.5M36.3101 134.14C36.3101 127.6 41.6201 122.29 48.1601 122.29C54.7001 122.29 60.0101 127.6 60.0101 134.14C60.0101 137.03 58.9801 139.67 57.2601 141.73M44.7701 145.5C46.9401 142.9 50.2101 141.24 53.8701 141.24C55.0501 141.24 56.1901 141.41 57.2601 141.73" stroke="#09090B" stroke-width="3" stroke-miterlimit="10"/>
<path fill-rule="evenodd" clip-rule="evenodd" d="M185.58 150.53C187.25 156.34 193.3 159.7 199.11 158.03C204.92 156.36 208.28 150.31 206.61 144.5C205.66 141.17 203.26 138.65 200.3 137.42C198.84 140.12 196.33 142.26 193.14 143.18C190.75 143.87 188.31 143.76 186.12 143.03C185.09 145.31 184.83 147.95 185.58 150.54V150.53Z" fill="#606060"/>
<path fill-rule="evenodd" clip-rule="evenodd" d="M196.53 121.97C193.72 120.07 190.12 119.38 186.61 120.39C185.48 120.71 184.43 121.19 183.49 121.8C181.27 120.3 179.55 118.04 178.75 115.26C176.95 108.97 180.58 102.41 186.87 100.6C193.16 98.8 199.72 102.43 201.53 108.72C203.01 113.88 200.83 119.22 196.53 121.97Z" fill="#606060"/>
<path d="M190.3 100.13C191.08 97.68 190.42 99.19 189.76 93.74C189.64 92.74 191.71 91.66 192.72 91.37C198.53 89.71 204.57 93.06 206.24 98.87C206.98 101.44 206.29 106.01 206.29 106.01C212.59 110.34 214.17 111.81 219.01 116.16C219.01 116.16 222.55 122.13 223.16 127.88L223.28 128.99C224.11 136.91 221.95 144.85 217.22 151.26L215.85 153.12C215.85 153.12 201.91 157.21 199.11 158.01C204.92 156.34 208.28 150.29 206.61 144.48C205.66 141.15 203.26 138.63 200.3 137.4C201.72 134.77 202.16 131.6 201.27 128.5C200.47 125.72 198.75 123.46 196.53 121.96C200.83 119.21 203.01 113.87 201.53 108.71C200.05 103.56 195.39 100.19 190.3 100.12V100.13Z" fill="#606060"/>
<path fill-rule="evenodd" clip-rule="evenodd" d="M183.49 121.79C184.43 121.19 185.48 120.71 186.61 120.38C190.12 119.37 193.72 120.06 196.53 121.96C198.75 123.46 200.47 125.72 201.27 128.5C202.16 131.6 201.73 134.77 200.3 137.4C198.84 140.1 196.33 142.24 193.14 143.16C190.75 143.85 188.31 143.74 186.12 143.01C182.55 141.81 179.6 138.93 178.49 135.04C177.01 129.88 179.19 124.54 183.49 121.79Z" fill="#606060"/>
<path d="M199.11 158.03C193.3 159.69 187.24 156.34 185.58 150.53C184.84 147.94 185.09 145.3 186.12 143.02M199.11 158.03C204.92 156.36 208.28 150.31 206.61 144.5C205.66 141.17 203.26 138.65 200.3 137.42M199.11 158.03C201.91 157.23 215.85 153.14 215.85 153.14L217.22 151.28C221.95 144.87 224.11 136.93 223.28 129.01L223.16 127.9C222.55 122.15 219.01 116.18 219.01 116.18C214.16 111.84 212.59 110.37 206.29 106.03C206.29 106.03 206.98 101.45 206.24 98.89C204.57 93.07 198.52 89.72 192.72 91.39C191.71 91.68 189.64 92.76 189.76 93.76C190.42 99.21 191.08 97.7 190.3 100.15C195.39 100.22 200.06 103.59 201.53 108.74M186.12 143.02C188.31 143.75 190.75 143.86 193.14 143.17C196.33 142.25 198.84 140.11 200.3 137.41C201.72 134.78 202.16 131.61 201.27 128.51C200.47 125.73 198.75 123.47 196.53 121.97M186.12 143.02C182.55 141.82 179.6 138.94 178.49 135.05C177.01 129.89 179.19 124.55 183.49 121.8C184.43 121.19 185.48 120.71 186.61 120.39C190.12 119.38 193.72 120.07 196.53 121.97M196.53 121.97C200.83 119.22 203.01 113.88 201.53 108.72M183.49 121.79C181.27 120.29 179.55 118.03 178.75 115.25C176.95 108.96 180.58 102.4 186.87 100.59C193.16 98.79 199.72 102.42 201.53 108.71" stroke="#09090B" stroke-width="3" stroke-miterlimit="10"/>
</svg>
