<svg width="358" height="476" viewBox="0 0 358 476" fill="none" xmlns="http://www.w3.org/2000/svg">
<g clip-path="url(#clip0_1_8)">
<g filter="url(#filter0_d_1_8)">
<path d="M322 191.614C322 255.623 234.859 369.578 196.652 416.596C187.491 427.801 170.509 427.801 161.348 416.596C123.141 369.578 36 255.623 36 191.614C36 113.983 100.052 51 179 51C257.948 51 322 113.983 322 191.614Z" fill="#A50034"/>
<path d="M200.523 419.761L200.527 419.755L200.532 419.749C219.688 396.176 251.171 355.751 277.89 313.132C291.248 291.825 303.478 269.871 312.382 249.132C321.249 228.476 327 208.617 327 191.614C327 111.143 260.63 46 179 46C97.3703 46 31 111.143 31 191.614C31 208.617 36.7505 228.476 45.6182 249.132C54.5223 269.871 66.7516 291.825 80.11 313.132C106.829 355.751 138.312 396.176 157.468 419.749L157.473 419.755L157.477 419.761C168.639 433.413 189.361 433.413 200.523 419.761Z" stroke="white" stroke-width="10"/>
</g>
<path d="M167.127 118.773C172.882 135.533 167.006 152.449 154.008 156.59C141.009 160.731 125.797 150.496 120.043 133.736C114.288 116.976 120.163 100.061 133.162 95.9196C146.16 91.7785 161.372 102.014 167.127 118.773ZM116.38 160.067C123.986 172.724 122.135 187.452 112.276 192.922C102.416 198.391 88.2504 192.57 80.6847 179.913C73.119 167.255 74.8897 152.527 84.7493 147.058C94.6089 141.588 108.774 147.409 116.34 160.067H116.38ZM103.825 239.216C124.912 184.015 162.379 169.99 178.999 169.99C195.619 169.99 233.086 184.015 254.173 239.216C255.622 243.005 256.266 247.068 256.266 251.131V251.756C256.266 261.835 247.855 270 237.472 270C232.844 270 228.257 269.453 223.79 268.359L188.376 259.765C182.218 258.28 175.78 258.28 169.622 259.765L134.208 268.359C129.741 269.453 125.153 270 120.526 270C110.143 270 101.732 261.835 101.732 251.756V251.131C101.732 247.068 102.376 243.005 103.825 239.216ZM245.722 192.922C235.863 187.452 234.012 172.724 241.618 160.067C249.223 147.409 263.349 141.588 273.208 147.058C283.068 152.527 284.919 167.255 277.313 179.913C269.707 192.57 255.582 198.391 245.722 192.922ZM200.771 156.59C187.772 152.449 181.897 135.533 187.651 118.773C193.406 102.014 208.618 91.7785 221.617 95.9196C234.615 100.061 240.491 116.976 234.736 133.736C228.981 150.496 213.769 160.731 200.771 156.59Z" fill="white"/>
</g>
<defs>
<filter id="filter0_d_1_8" x="16" y="31" width="346" height="434" filterUnits="userSpaceOnUse" color-interpolation-filters="sRGB">
<feFlood flood-opacity="0" result="BackgroundImageFix"/>
<feColorMatrix in="SourceAlpha" type="matrix" values="0 0 0 0 0 0 0 0 0 0 0 0 0 0 0 0 0 0 127 0" result="hardAlpha"/>
<feOffset dx="10" dy="10"/>
<feGaussianBlur stdDeviation="10"/>
<feComposite in2="hardAlpha" operator="out"/>
<feColorMatrix type="matrix" values="0 0 0 0 0 0 0 0 0 0 0 0 0 0 0 0 0 0 0.25 0"/>
<feBlend mode="normal" in2="BackgroundImageFix" result="effect1_dropShadow_1_8"/>
<feBlend mode="normal" in="SourceGraphic" in2="effect1_dropShadow_1_8" result="shape"/>
</filter>
<clipPath id="clip0_1_8">
<rect width="358" height="476" fill="white"/>
</clipPath>
</defs>
</svg>
